<svg width="355" height="108" viewBox="0 0 355 108" fill="none" xmlns="http://www.w3.org/2000/svg">
<path d="M51 82.5C51 96.5833 39.5833 108 25.5 108C11.4167 108 0 96.5833 0 82.5C0 68.4167 11.4167 57 25.5 57C39.5833 57 51 68.4167 51 82.5Z" fill="black"/>
<path d="M39 82.5C39 89.9558 32.9558 96 25.5 96C18.0442 96 12 89.9558 12 82.5C12 75.0442 18.0442 69 25.5 69C32.9558 69 39 75.0442 39 82.5Z" fill="white"/>
<path d="M19 0H33V52H19V0Z" fill="black"/>
<path d="M33 0L33 13L8 13L8 -7.58058e-07L33 0Z" fill="black"/>
<path d="M352.344 68C352.072 66.7689 351.611 65.5793 350.96 64.4311C350.308 63.2711 349.474 62.2294 348.456 61.3061C347.45 60.371 346.266 59.6311 344.905 59.0866C343.555 58.5421 342.04 58.2699 340.359 58.2699C337.791 58.2699 335.512 58.9446 333.523 60.294C331.547 61.6316 329.996 63.5433 328.871 66.0291C327.759 68.5031 327.202 71.4328 327.202 74.8182C327.202 78.1681 327.759 81.0859 328.871 83.5717C329.984 86.0575 331.541 87.9811 333.541 89.3423C335.553 90.6917 337.891 91.3665 340.555 91.3665C342.934 91.3665 345.041 90.816 346.876 89.7152C348.722 88.6143 350.16 87.04 351.19 84.9922C352.22 82.9444 352.723 80.4941 352.7 77.6413L353.481 78.0142H341.123V75.9545H354.866V78.0142C354.866 81.2221 354.25 83.986 353.019 86.3061C351.8 88.6143 350.107 90.3899 347.941 91.6328C345.787 92.8757 343.325 93.4972 340.555 93.4972C337.43 93.4972 334.701 92.7218 332.369 91.1712C330.037 89.6205 328.226 87.4484 326.936 84.6548C325.658 81.8494 325.018 78.5705 325.018 74.8182C325.018 72.0009 325.385 69.4441 326.119 67.1477C326.853 64.8513 327.901 62.8864 329.262 61.2528C330.623 59.6075 332.245 58.3468 334.127 57.4709C336.009 56.5831 338.087 56.1392 340.359 56.1392C342.419 56.1392 344.272 56.4825 345.917 57.169C347.562 57.8437 348.983 58.7552 350.178 59.9034C351.386 61.0398 352.362 62.3123 353.108 63.7209C353.854 65.1177 354.357 66.544 354.617 68H352.344Z" fill="black"/>
<path d="M316.371 56.6364V93H314.205L291.016 60.6669H290.803V93H288.584V56.6364H290.768L313.957 89.005H314.17V56.6364H316.371Z" fill="black"/>
<path d="M278.059 56.6364V93H275.84V56.6364H278.059Z" fill="black"/>
<path d="M242.273 58.696V56.6364H267.752V58.696H256.122V93H253.903V58.696H242.273Z" fill="black"/>
<path d="M215.244 93V56.6364H235.485V58.696H217.463V73.7706H234.402V75.8302H217.463V90.9403H235.912V93H215.244Z" fill="black"/>
<path d="M183.847 93V56.6364H186.067V77.7479H186.316L205.492 56.6364H208.439L192.654 73.8416L208.297 93H205.527L191.234 75.4396L186.067 81.1569V93H183.847Z" fill="black"/>
<path d="M152.695 93V56.6364H163.899C166.195 56.6364 168.172 57.0862 169.829 57.9858C171.487 58.8854 172.759 60.1342 173.647 61.7322C174.535 63.3184 174.979 65.165 174.979 67.272C174.979 69.3553 174.535 71.1901 173.647 72.7763C172.759 74.3506 171.487 75.5817 169.829 76.4694C168.184 77.3572 166.213 77.8011 163.917 77.8011H153.885V75.7237H163.863C165.734 75.7237 167.332 75.3745 168.657 74.6761C169.983 73.9777 171.001 73.0012 171.711 71.7464C172.422 70.4799 172.777 68.9884 172.777 67.272C172.777 65.5438 172.422 64.0405 171.711 62.7621C171.001 61.4718 169.977 60.4716 168.64 59.7614C167.314 59.0511 165.716 58.696 163.846 58.696H154.915V93H152.695ZM167.628 76.5227L176.577 93H174.02L165.124 76.5227H167.628Z" fill="black"/>
<path d="M119.456 93H117.113L130.234 56.6364H132.791L145.912 93H143.569L131.601 59.495H131.424L119.456 93ZM122.777 79.3104H140.248V81.37H122.777V79.3104Z" fill="black"/>
<path d="M77.2557 56.6364H79.6704L93.6797 89.804H93.9283L107.937 56.6364H110.352V93H108.222V61.9098H108.009L94.8516 93H92.7564L79.5994 61.9098H79.3864V93H77.2557V56.6364Z" fill="black"/>
<path d="M139.698 6.63635H150.706L157.809 21.4091H158.093L165.195 6.63635H176.204L162.851 31.5653V43H153.05V31.5653L139.698 6.63635Z" fill="black"/>
<path d="M110.086 43V6.63635H136.293V14.5909H119.958V20.8409H134.944V28.7954H119.958V35.0454H136.222V43H110.086Z" fill="black"/>
<path d="M74.3438 43V6.63635H84.2159V21.3381H84.7131L95.6506 6.63635H107.156L94.8693 22.8295L107.44 43H95.6506L87.483 29.3636L84.2159 33.625V43H74.3438Z" fill="black"/>
</svg>
